<svg width="30" height="30" viewBox="0 0 30 30" fill="none" xmlns="http://www.w3.org/2000/svg">
<path d="M8.71154 0.507208H9.21154V0.5H21.2957C25.8148 0.5 29.5 4.19064 29.5 8.70944V21.2906C29.5 25.8096 25.8145 29.5 21.3029 29.5H8.71154C4.19109 29.5 0.5 25.8152 0.5 21.305V8.71665C0.5 4.19839 4.19189 0.507208 8.71154 0.507208ZM1.80769 8.72285V8.72386V21.3122C1.80769 25.1292 4.88096 28.2001 8.71154 28.2001H21.3029C25.1205 28.2001 28.1923 25.1277 28.1923 21.2978V8.71665C28.1923 4.88633 25.1201 1.81435 21.2957 1.81435H8.71154C4.88651 1.81435 1.81546 4.88666 1.80769 8.72285ZM23.5841 5.77506C23.5841 5.40964 23.8722 5.12149 24.238 5.12149C24.6038 5.12149 24.8918 5.40964 24.8918 5.77506C24.8918 6.14047 24.6038 6.42863 24.238 6.42863C23.8722 6.42863 23.5841 6.14047 23.5841 5.77506ZM7.43029 15.0036C7.43029 10.8386 10.8409 7.42863 15.0072 7.42863C19.1735 7.42863 22.5841 10.8386 22.5841 15.0036C22.5841 19.1686 19.1735 22.5786 15.0072 22.5786C10.8409 22.5786 7.43029 19.1686 7.43029 15.0036ZM21.2764 15.0036C21.2764 11.5262 18.4852 8.73576 15.0072 8.73576C11.5293 8.73576 8.73798 11.5262 8.73798 15.0036C8.73798 18.481 11.5293 21.2715 15.0072 21.2715C18.4852 21.2715 21.2764 18.481 21.2764 15.0036Z" fill="#070707" stroke="#070707"/>
</svg>
